<svg width="20" height="21" viewBox="0 0 20 21" fill="none" xmlns="http://www.w3.org/2000/svg">
<g clip-path="url(#clip0_1181_1858)">
<path d="M17.25 15.5C18.2165 15.5 19 14.7165 19 13.75C19 12.7835 18.2165 12 17.25 12C16.2835 12 15.5 12.7835 15.5 13.75C15.5 14.7165 16.2835 15.5 17.25 15.5Z" stroke="#98BDBD" stroke-width="1.16667" stroke-linecap="round" stroke-linejoin="round"/>
<path d="M10.25 8.5C11.2165 8.5 12 7.7165 12 6.75C12 5.7835 11.2165 5 10.25 5C9.2835 5 8.5 5.7835 8.5 6.75C8.5 7.7165 9.2835 8.5 10.25 8.5Z" stroke="#98BDBD" stroke-width="1.16667" stroke-linecap="round" stroke-linejoin="round"/>
<path d="M10.25 8.5C10.25 9.89239 10.8031 11.2277 11.7877 12.2123C12.7723 13.1969 14.1076 13.75 15.5 13.75" stroke="#98BDBD" stroke-width="1.16667" stroke-linecap="round" stroke-linejoin="round"/>
<path d="M3.25 15.5C2.2835 15.5 1.5 14.7165 1.5 13.75C1.5 12.7835 2.2835 12 3.25 12C4.2165 12 5 12.7835 5 13.75C5 14.7165 4.2165 15.5 3.25 15.5Z" stroke="#98BDBD" stroke-width="1.16667" stroke-linecap="round" stroke-linejoin="round"/>
<path d="M10.25 8.5C10.25 9.89239 9.69688 11.2277 8.71231 12.2123C7.72774 13.1969 6.39239 13.75 5 13.75" stroke="#98BDBD" stroke-width="1.16667" stroke-linecap="round" stroke-linejoin="round"/>
<path d="M3.66724 2.06201L0.611209 5.11804" stroke="#98BDBD" stroke-width="1.16129" stroke-linecap="round" stroke-linejoin="round"/>
<path d="M0.611209 2.06201L3.66724 5.11804" stroke="#98BDBD" stroke-width="1.16129" stroke-linecap="round" stroke-linejoin="round"/>
<path d="M14.669 3.89567L15.8914 5.11808L18.4211 2.0791" stroke="#98BDBD" stroke-width="1.16129" stroke-linecap="round" stroke-linejoin="round"/>
</g>
<defs>
<clipPath id="clip0_1181_1858">
<rect width="20" height="20" fill="white" transform="translate(20 0.5) rotate(90)"/>
</clipPath>
</defs>
</svg>
